#!OML:ASF I:\Actors\actors\Patient Classification 2\Patient 1\Session 1\actor1.ASF
:FULLY-SPECIFIED
:DEGREES
742
root 0.260887 17.5425 5.85828 6.06214 -0.500229 0.274234
lowerback 38.7986 1.86812 -3.82522
upperback 13.4191 0.994716 1.09429
thorax -4.09823 0.306106 2.77711
lowerneck -1.37626 -1.6362 -4.16097
upperneck 42.9387 -1.71458 0.248082
head 15.4429 -1.30282 0.667398
rclavicle -4.29872e-015 2.95692e-015
rhumerus -27.4007 42.555 -70.5397
rradius 85.971
rwrist 0.116258
rhand -3.67547 -42.0114
rfingers 7.12502
rthumb 22.0656 -70.7725
lclavicle -4.29872e-015 2.95692e-015
lhumerus -23.8828 -48.4328 69.5654
lradius 90.4792
lwrist 26.3021
lhand 5.06597 -16.4022
lfingers 7.12502
lthumb 30.4329 11.1058
rfemur -31.0361 3.29491 15.6379
rtibia 49.5042
rfoot -26.9964 3.48401
rtoes -10.0222
lfemur -35.8855 -3.29314 -21.6342
ltibia 52.6612
lfoot -25.0126 -3.41859
ltoes -52.7988
743
root 0.258769 17.609 5.91788 5.47127 -0.392312 -0.169499
lowerback 37.8906 1.47537 -2.95826
upperback 13.0539 0.850817 1.07413
thorax -4.20083 0.272946 2.36672
lowerneck -1.92058 -1.63757 -3.8633
upperneck 43.0723 -1.61917 -0.108666
head 15.6285 -1.26129 0.465495
rclavicle -2.28602e-015 -4.45402e-015
rhumerus -30.4362 43.028 -70.9394
rradius 88.1522
rwrist -0.397934
rhand -2.50843 -41.7246
rfingers 7.12502
rthumb 23.1857 -70.3491
lclavicle -2.28602e-015 -4.45402e-015
lhumerus -27.2596 -48.4979 70.207
lradius 92.4768
lwrist 27.3639
lhand 6.3968 -16.2316
lfingers 7.12502
lthumb 31.7013 11.0338
rfemur -29.2455 2.8362 16.3263
rtibia 48.2801
rfoot -27.9193 1.86085
rtoes -9.72909
lfemur -34.3632 -3.49994 -21.1432
ltibia 51.6363
lfoot -24.8145 -3.48647
ltoes -52.4203
744
root 0.210925 17.6661 6.00131 5.36559 -0.608992 0.564072
lowerback 36.3152 1.72725 -3.9059
upperback 12.6533 0.890899 1.0192
thorax -4.12104 0.276632 2.80352
lowerneck -2.78607 -1.4526 -4.40399
upperneck 43.6639 -1.5113 0.659301
head 16.172 -1.22175 0.906492
rclavicle 1.36664e-015 3.82039e-015
rhumerus -33.4098 43.4927 -71.1359
rradius 90.3819
rwrist -1.20137
rhand -1.53441 -41.543
rfingers 7.12502
rthumb 24.1199 -70.0468
lclavicle 1.36664e-015 3.82039e-015
lhumerus -30.3852 -48.3758 70.6743
lradius 94.4306
lwrist 28.3549
lhand 8.00491 -15.6964
lfingers 7.12502
lthumb 33.2317 11.2546
rfemur -28.2088 2.96483 15.6858
rtibia 47.1584
rfoot -28.4112 0.240776
rtoes -9.34708
lfemur -33.3399 -3.60064 -21.7881
ltibia 50.5505
lfoot -24.5432 -3.39862
ltoes -52.015
745
root 0.175275 17.7207 6.08178 5.17079 -0.674579 0.887131
lowerback 34.832 1.7334 -4.19351
upperback 12.3035 0.86918 0.999852
thorax -4.12801 0.26985 2.96405
lowerneck -3.39767 -1.25549 -4.90506
upperneck 43.9924 -1.37207 1.35637
head 16.5132 -1.16896 1.32606
rclavicle 5.66536e-015 -6.38596e-015
rhumerus -36.4089 43.9507 -71.2302
rradius 92.5801
rwrist -2.25766
rhand -1.05703 -41.1284
rfingers 7.12502
rthumb 24.5775 -69.5707
lclavicle 5.66536e-015 -6.38596e-015
lhumerus -33.5452 -48.2028 71.1013
lradius 96.2972
lwrist 29.2806
lhand 9.47354 -15.2865
lfingers 7.12502
lthumb 34.6268 11.3559
rfemur -27.0872 2.84607 15.4581
rtibia 46.0111
rfoot -28.3712 -0.954925
rtoes -10.9381
lfemur -32.2404 -3.76387 -22.0303
ltibia 49.5014
lfoot -24.4238 -3.2302
ltoes -51.9066
746
root 0.143825 17.7745 6.1626 4.91425 -0.637997 1.02768
lowerback 33.5319 1.63583 -4.18153
upperback 11.8569 0.810491 1.01984
thorax -4.14578 0.252803 3.0134
lowerneck -3.80883 -1.26662 -5.36681
upperneck 43.8958 -1.46196 1.81727
head 16.5739 -1.22435 1.60265
rclavicle -5.96354e-016 5.51627e-015
rhumerus -39.2941 44.3677 -71.1262
rradius 94.716
rwrist -3.26458
rhand -0.739374 -40.4933
rfingers 7.12502
rthumb 24.882 -68.8939
lclavicle -5.96354e-016 5.51627e-015
lhumerus -36.6299 -47.8403 71.4615
lradius 98.0543
lwrist 29.9372
lhand 11.002 -14.8569
lfingers 7.12502
lthumb 36.0761 11.4409
rfemur -25.9321 2.62884 15.4203
rtibia 44.8918
rfoot -27.426 -0.176872
rtoes -8.3924
lfemur -31.0553 -3.94616 -22.0872
ltibia 48.4474
lfoot -24.3999 -3.10575
ltoes -51.8849
747
root 0.11298 17.8279 6.25152 4.55573 -0.628426 1.21074
lowerback 31.8918 1.52028 -4.15687
upperback 11.7688 0.762239 0.887765
thorax -4.08824 0.244701 3.13258
lowerneck -3.84977 -1.60604 -5.32789
upperneck 43.2364 -1.77676 1.30583
head 16.2242 -1.39691 1.31595
rclavicle -2.38542e-015 -8.44835e-015
rhumerus -42.1366 44.6933 -70.9565
rradius 96.7249
rwrist -3.44853
rhand -0.406119 -39.9374
rfingers 7.12502
rthumb 25.2013 -68.2934
lclavicle -2.38542e-015 -8.44835e-015
lhumerus -39.4766 -47.2237 71.5428
lradius 99.7065
lwrist 30.4404
lhand 12.9118 -14.4364
lfingers 7.12502
lthumb 37.8826 11.3946
rfemur -24.6284 2.55559 15.3231
rtibia 43.709
rfoot -26.6717 0.150583
rtoes -7.3087
lfemur -29.7346 -4.10529 -22.2026
ltibia 47.4528
lfoot -24.4569 -2.9884
ltoes -51.8798
748
root 0.0809596 17.8787 6.34838 4.1505 -0.699463 1.33714
lowerback 30.6385 1.45468 -4.13452
upperback 11.3046 0.737063 0.906622
thorax -4.05807 0.241617 3.14858
lowerneck -4.1384 -1.61426 -5.26883
upperneck 43.1616 -1.65995 0.969991
head 16.2436 -1.37795 1.17032
rclavicle 7.85199e-015 3.37934e-015
rhumerus -44.9751 44.9412 -70.7459
rradius 98.5604
rwrist -3.05002
rhand -0.233531 -39.4572
rfingers 7.12502
rthumb 25.3667 -67.7899
lclavicle 7.85199e-015 3.37934e-015
lhumerus -42.1371 -46.4506 71.4242
lradius 101.135
lwrist 31.0788
lhand 14.8741 -14.1595
lfingers 7.12502
lthumb 39.7331 11.1465
rfemur -23.2402 2.75243 15.2902
rtibia 42.5044
rfoot -26.1942 0.0476356
rtoes -6.86362
lfemur -28.3764 -4.14763 -22.266
ltibia 46.5168
lfoot -24.4844 -2.88591
ltoes -51.9362
749
root 0.0465805 17.9239 6.44858 3.76186 -0.791865 1.3692
lowerback 29.3561 1.39313 -4.07134
upperback 10.8277 0.730947 0.976444
thorax -4.01606 0.247086 3.19097
lowerneck -4.54317 -1.54383 -5.17137
upperneck 43.0857 -1.41826 0.610704
head 16.285 -1.30491 1.0243
rclavicle 1.68967e-015 -8.34896e-015
rhumerus -47.4857 45.0554 -70.2336
rradius 100.263
rwrist -3.25178
rhand 0.295752 -38.8139
rfingers 7.12502
rthumb 25.8736 -67.0736
lclavicle 1.68967e-015 -8.34896e-015
lhumerus -44.6258 -45.5566 71.1431
lradius 102.326
lwrist 31.8657
lhand 16.756 -13.9523
lfingers 7.12502
lthumb 41.5019 10.8025
rfemur -21.8568 3.00586 15.3904
rtibia 41.3073
rfoot -25.916 -0.0608123
rtoes -6.26653
lfemur -27.0924 -4.11749 -22.2266
ltibia 45.6345
lfoot -24.3295 -2.81671
ltoes -51.9164
750
root 0.0101076 17.9665 6.55307 3.3452 -0.860287 1.35205
lowerback 28.0562 1.32237 -3.98003
upperback 10.3974 0.720511 1.0588
thorax -3.89824 0.248319 3.23174
lowerneck -5.02403 -1.60384 -5.32821
upperneck 42.8581 -1.40897 0.495445
head 16.2782 -1.33722 0.999129
rclavicle 5.96354e-016 2.18663e-015
rhumerus -49.5611 44.9503 -69.3542
rradius 101.861
rwrist -3.98428
rhand 1.26046 -38.1735
rfingers 7.12502
rthumb 26.7971 -66.2952
lclavicle 5.96354e-016 2.18663e-015
lhumerus -46.8436 -44.5594 70.5119
lradius 103.356
lwrist 32.7883
lhand 18.5682 -13.9181
lfingers 7.12502
lthumb 43.199 10.2571
rfemur -20.4164 3.1508 15.5877
rtibia 40.1287
rfoot -25.7845 -0.1039
rtoes -5.73865
lfemur -25.7914 -4.19837 -22.1367
ltibia 44.7946
lfoot -24.1227 -2.58822
ltoes -51.9087
751
root -0.0285982 18.0081 6.66434 2.93323 -0.887888 1.36821
lowerback 26.7096 1.23381 -3.89779
upperback 9.94805 0.681306 1.09568
thorax -3.7625 0.236397 3.23545
lowerneck -5.37616 -1.59443 -5.48094
upperneck 42.5627 -1.36532 0.534821
head 16.2014 -1.33583 1.0468
rclavicle -5.86415e-015 4.57205e-015
rhumerus -51.197 44.1 -68.1561
rradius 103.473
rwrist -5.73828
rhand 3.52929 -38.2617
rfingers 7.12502
rthumb 28.9662 -66.0313
lclavicle -5.86415e-015 4.57205e-015
lhumerus -48.9255 -43.6011 69.5262
lradius 104.267
lwrist 33.9472
lhand 20.2887 -13.9207
lfingers 7.12502
lthumb 44.8039 9.65568
rfemur -18.9616 3.31362 15.766
rtibia 38.9945
rfoot -25.8188 -0.223423
rtoes -5.2185
lfemur -24.4806 -4.43027 -22.0901
ltibia 43.988
lfoot -23.9713 -2.1875
ltoes -51.9417
752
root -0.0681801 18.0491 6.78122 2.63582 -0.812695 1.45194
lowerback 25.2976 1.0872 -3.78872
upperback 9.35627 0.56836 1.05483
thorax -3.73122 0.195078 3.15838
lowerneck -5.39231 -1.4985 -5.54887
upperneck 42.0891 -1.25638 0.631441
head 15.9418 -1.28486 1.11405
rclavicle -1.68967e-015 1.19271e-015
rhumerus -53.1554 42.5612 -67.3792
rradius 104.716
rwrist -6.07883
rhand 4.86478 -38.112
rfingers 7.12502
rthumb 30.241 -65.6554
lclavicle -1.68967e-015 1.19271e-015
lhumerus -51.1309 -42.7811 68.3206
lradius 105.096
lwrist 35.331
lhand 21.8249 -13.6943
lfingers 7.12502
lthumb 46.2312 9.30336
rfemur -17.6352 3.42966 15.8617
rtibia 37.9242
rfoot -25.9442 -0.343588
rtoes -4.43817
lfemur -23.3014 -4.88331 -22.1225
ltibia 43.2142
lfoot -23.9174 -1.61802
ltoes -52.0073
